# xmcd
#
# Track frame offsets:
#	150
#	14916
#	36480
#	50832
#	61641
#	75885
#	92340
#	121545
#	140097
#	157501
#	179753
#	194202
#	212958
#	227157
#	239670
#	250554
#	267645
#	283800
#	294784
#	305692
#
# Disc length: 4295 seconds
#
# Revision: 16
# Processed by: cddbd v1.5.2PL0 Copyright (c) Steve Scherf et al.
# Submitted via: MusicWizard 7.2.0
#
DISCID=2810c514
DTITLE=Charles Aznavour - 40 Chansons D'Or [CD 1/2)
DYEAR=1996
DGENRE=Chanson
TTITLE0=Au Creux De Mon Épaule
TTITLE1=Sa Jeunesse
TTITLE2=Toi Et Moi
TTITLE3=Le Palais De Nos Chimères
TTITLE4=Mes Emmerdes
TTITLE5=À Ma Fille
TTITLE6=Non Je N'Ai Rien Oublié
TTITLE7=La Bohème
TTITLE8=Les Deux Guitares
TTITLE9=Comme Ils Disent
TTITLE10=Désormais
TTITLE11=Bon Anniversaire
TTITLE12=Il Te Suffisait Que Je T'Aime
TTITLE13=Pour Faire Une Jam
TTITLE14=Les Comédiens
TTITLE15=La Mamma
TTITLE16=Emmenez-Moi
TTITLE17=Trousse Chemise
TTITLE18=Donne Tes Seize Ans
TTITLE19=Tu T'Laisses Aller
EXTD=Gilbert Schuchter, Klavier\n\n\n\nTudor 741/43\n\n(p) 1988 YEAR:1996 ID3G: 102
EXTT0=
EXTT1=
EXTT2=
EXTT3=
EXTT4=
EXTT5=
EXTT6=
EXTT7=
EXTT8=
EXTT9=
EXTT10=
EXTT11=
EXTT12=
EXTT13=
EXTT14=
EXTT15=
EXTT16=
EXTT17=
EXTT18=
EXTT19=
PLAYORDER=
